<svg width="18" height="18" viewBox="0 0 18 18" fill="none" xmlns="http://www.w3.org/2000/svg">
<path fill-rule="evenodd" clip-rule="evenodd" d="M0.75 1.95C0.75 1.70147 0.951472 1.5 1.2 1.5H8.84036C8.94363 1.5 9.04377 1.53552 9.12395 1.60061L14.0836 5.2513C14.1889 5.33674 14.25 5.4651 14.25 5.60069V16.05C14.25 16.2985 14.0485 16.5 13.8 16.5H1.2C0.951472 16.5 0.75 16.2985 0.75 16.05V1.95Z" stroke="#FF3182" stroke-linecap="round" stroke-linejoin="round"/>
<path fill-rule="evenodd" clip-rule="evenodd" d="M4.5 7.5V13.5H10.5V7.5H4.5Z" stroke="#FF3182" stroke-linecap="round" stroke-linejoin="round"/>
<path d="M10.5 10.5H4.5" stroke="#FF3182" stroke-linecap="round" stroke-linejoin="round"/>
<path d="M4.19971 1.5H11.8401C11.9433 1.5 12.0435 1.53552 12.1237 1.60061L17.0833 5.2513C17.1886 5.33674 17.2497 5.4651 17.2497 5.60069V16.05C17.2497 16.2985 17.0482 16.5 16.7997 16.5H12.75" stroke="#FF3182" stroke-linecap="round" stroke-linejoin="round"/>
</svg>
