<svg width="20" height="16" viewBox="0 0 20 16" fill="none" xmlns="http://www.w3.org/2000/svg">
<path d="M19.6446 1.72417C19.3854 1.41497 19.0225 1.22611 18.6227 1.1924L4.53846 0.00538127C4.13854 -0.0283297 3.74971 0.0971697 3.44334 0.358696C3.13823 0.619197 2.95139 0.983631 2.91694 1.38528L2.63358 4.0686H1.50214C0.673864 4.0686 0 4.74877 0 5.5848V14.4838C0 15.3198 0.673864 16 1.50214 16H15.6354C16.4637 16 17.1376 15.3198 17.1376 14.4838V13.0402L17.6391 13.0825C17.6814 13.086 17.7235 13.0878 17.7652 13.0878C18.5374 13.0878 19.1957 12.4881 19.261 11.6977L19.9947 2.82957C20.028 2.42595 19.9037 2.0334 19.6446 1.72417ZM1.50214 4.85716H15.6354C16.0329 4.85716 16.3563 5.18358 16.3563 5.5848V6.39568H0.781247V5.5848C0.781247 5.18358 1.10464 4.85716 1.50214 4.85716ZM0.781247 7.18424H16.3563V8.82007H0.781247V7.18424ZM15.6354 15.2114H1.50214C1.10464 15.2114 0.781247 14.885 0.781247 14.4838V9.60863H16.3563V14.4838C16.3563 14.885 16.0329 15.2114 15.6354 15.2114ZM19.2161 2.76393L18.4825 11.632C18.4494 12.0319 18.1002 12.3302 17.7041 12.2966L17.1376 12.2489V5.5848C17.1376 4.74877 16.4637 4.0686 15.6354 4.0686H3.41928L3.69424 1.46477C3.69455 1.46177 3.69483 1.45882 3.69506 1.45578C3.72815 1.05594 4.07721 0.757708 4.47346 0.791222L18.5577 1.97824C18.7496 1.99441 18.9238 2.08505 19.0481 2.23346C19.1725 2.38187 19.2321 2.57021 19.2161 2.76393Z" fill="#FF3182"/>
</svg>
