<svg width="75" height="71" viewBox="0 0 75 71" fill="none" xmlns="http://www.w3.org/2000/svg">
<path d="M32.9637 2.91793C1.6638 14.1499 -6.55022 34.1027 4.95212 48.5476C16.4545 62.9926 39.1614 71.5515 47.4431 70.9575C83.98 73.239 88.9733 -17.1834 32.9637 2.91793Z" fill="#FF3182"/>
<path fill-rule="evenodd" clip-rule="evenodd" d="M34.49 43.3162L28.1743 47.0834L29.2586 40.6162C26.6311 38.4492 25.166 35.4471 25.166 32.1297C25.166 25.5227 30.9774 20.1667 40.2077 20.1667C49.438 20.1667 55.2493 25.5227 55.2493 32.1297C55.2493 38.7367 49.438 44.0927 40.2077 44.0927C38.1172 44.0927 36.202 43.8179 34.49 43.3162Z" stroke="white" stroke-width="2" stroke-linecap="round" stroke-linejoin="round"/>
<path d="M54.5451 36C56.0176 37.4622 56.832 39.3994 56.832 41.5244C56.832 43.8114 55.8886 45.881 54.1967 47.3749L54.8949 51.8333L50.828 49.2362C49.7256 49.5821 48.4923 49.7715 47.1462 49.7715C42.2979 49.7715 38.9145 47.3148 37.832 43.9372" stroke="white" stroke-width="2" stroke-linecap="round" stroke-linejoin="round"/>
</svg>
