<svg width="75" height="71" viewBox="0 0 75 71" fill="none" xmlns="http://www.w3.org/2000/svg">
<path d="M32.9637 2.91793C1.6638 14.1499 -6.55022 34.1027 4.95212 48.5476C16.4545 62.9926 39.1614 71.5515 47.4431 70.9575C83.98 73.239 88.9733 -17.1834 32.9637 2.91793Z" fill="#FF3182"/>
<mask id="path-2-inside-1" fill="white">
<path fill-rule="evenodd" clip-rule="evenodd" d="M42.196 36.7463V36.7566V36.7656V36.776V36.785V36.7953V36.8044V36.8147V36.8237V36.834V36.8431V36.8534V36.8637V36.8728V36.8831V36.8921V36.9024V36.9115V36.9218V36.9308V36.9412V36.9502V36.9605V36.9696V36.9799V36.9889V36.9992V37.0083V37.0186V37.0276V37.0367V37.047V37.056V37.0663V37.0754V37.0857V37.0947V37.1051V37.1141V37.1244V37.1335V37.1425V37.1528V37.1618V37.1722V37.1812V37.1915V37.2006V37.2096V37.2199V37.229V37.238V37.2483V37.2573V37.2677V37.2767V37.2857V37.2961V37.3051V37.3141V37.3245V37.3335V37.3425V37.3528V37.3619V37.3709V37.3812V37.3903V37.3993V37.4096V37.4187V37.4277V37.4367V37.4471V37.4561V37.4651V37.4754V37.4845V37.4935V37.5026V37.5129V37.5219V37.5309V37.54V37.549V37.5593V37.5684V37.5774V37.5864V37.5955V37.6045V37.6148V37.6239V37.6329V37.6419V37.651V37.66V37.669V37.6794V37.6884V37.6974V37.7065V37.7155V37.7245V37.7336V37.7426V37.7516V37.7607V37.7697V37.7787V37.7878V37.7968V37.8071V37.8162V37.8252V37.8342V37.842V37.851V37.86V37.8691V37.8781V37.8871V37.8962V37.9052V37.9142V37.9233V37.9323V37.9413V37.9504V37.9594V37.9671V37.9762V37.9852V37.9942V38.0033V38.0123V38.0201V38.0291V38.0381V38.0472V38.0562V38.0639V38.073V38.082V38.091V38.0988V38.1078V38.1168V38.1259V38.1336V38.1427V38.1517V38.1594V38.1685V38.1775V38.1853V38.1943V38.2033V38.2111V38.2201V38.2278V38.2369V38.2459V38.2536V38.2627V38.2704V38.2795V38.2872V38.2962V38.304V38.313V38.3208V38.3298V38.3375V38.3466V38.3543V38.3621V38.3711V38.3788V38.3879V38.3956V38.4034V38.4124V38.4201V38.4279V38.4369V38.4447V38.4524V38.4614V38.4692V38.4769V38.4859V38.4937V38.5014V38.5092V38.5169V38.526V38.5337V38.5414V38.5492V38.5569V38.5647V38.5737V38.5814V38.5892V38.5969V38.6047V38.6124V38.6202V38.6279V38.6357V38.6434V38.6511V38.6589V38.6666V38.6744V38.6821V38.6899V38.6976V38.7053V38.7131V38.7208V38.7286V38.735V38.7428V38.7505V38.7583V38.766V38.7737V38.7802V38.7879V38.7957V38.8034V38.8099V38.8176V38.8254V38.8318V38.8396V38.8473V38.8538V38.8615V38.8692V38.8757V38.8834V38.8912V38.8976V38.9054V38.9118V38.9196V38.926V38.9338V38.9402V38.948V38.9544V38.9609V38.9686V38.9751V38.9828V38.9893V38.9957V39.0035V39.0099V39.0164V39.0241V39.0306V39.037V39.0448V39.0512V39.0577V39.0641V39.0706V39.0783V39.0848V39.0912V39.0977V39.1041V39.1106V39.117V39.1235V39.1299V39.1364V39.1428V39.1493V39.1557V39.1622V39.1686V39.1751V39.1816V39.188V39.1945V39.2009V39.2074V39.2138V39.219V39.2254V39.2319V39.2383V39.2448V39.25V39.2564V39.2629V39.268V39.2745V39.2809V39.2861V39.2925V39.299V39.3042V39.3106V39.3158V39.3222V39.3274V39.3338V39.339V39.3454V39.3506V39.3571V39.3622V39.3674V39.3738V39.379V39.3855V39.3906V39.3958V39.4009V39.4074V39.4126V39.4177V39.4229V39.4293V39.4345V39.4397V39.4448V39.45V39.4551V39.4603V39.4655V39.4706V39.4758V39.481V39.4861V39.4913V39.4964V39.5016V39.5068V39.5119V39.5171V39.5223V39.5274V39.5313V39.5364V39.5416V39.5468V39.5519V39.5558V39.561V39.5661V39.57V39.5752V39.5803V39.5842V39.5894V39.5932V39.5984V39.6023V39.6074V39.6113V39.6165V39.6203V39.6255V39.6294V39.6332V39.6384V39.6423V39.6461V39.6487H44.8577C45.5897 39.6487 46.1886 40.2269 46.1886 40.9393C46.1886 41.6517 45.5897 42.2298 44.8577 42.2298H42.196V44.8109H46.1886C46.9206 44.8109 47.5195 45.3891 47.5195 46.1015C47.5195 46.8138 46.9206 47.392 46.1886 47.392H40.8651H38.8688C38.1368 47.392 37.5379 46.8138 37.5379 46.1015C37.5379 45.3891 38.1368 44.8109 38.8688 44.8109H39.5342V42.2298H38.2034C37.4714 42.2298 36.8725 41.6517 36.8725 40.9393C36.8725 40.2269 37.4714 39.6487 38.2034 39.6487H39.5342V39.6461V39.6423V39.6384V39.6332V39.6294V39.6255V39.6203V39.6165V39.6113V39.6074V39.6023V39.5984V39.5932V39.5894V39.5842V39.5803V39.5752V39.57V39.5661V39.561V39.5558V39.5519V39.5468V39.5416V39.5364V39.5313V39.5274V39.5223V39.5171V39.5119V39.5068V39.5016V39.4964V39.4913V39.4861V39.481V39.4758V39.4706V39.4655V39.4603V39.4551V39.45V39.4448V39.4397V39.4345V39.4293V39.4229V39.4177V39.4126V39.4074V39.4009V39.3958V39.3906V39.3855V39.379V39.3738V39.3674V39.3622V39.3571V39.3506V39.3454V39.339V39.3338V39.3274V39.3222V39.3158V39.3106V39.3042V39.299V39.2925V39.2861V39.2809V39.2745V39.268V39.2629V39.2564V39.25V39.2448V39.2383V39.2319V39.2254V39.219V39.2138V39.2074V39.2009V39.1945V39.188V39.1816V39.1751V39.1686V39.1622V39.1557V39.1493V39.1428V39.1364V39.1299V39.1235V39.117V39.1106V39.1041V39.0977V39.0912V39.0848V39.0783V39.0706V39.0641V39.0577V39.0512V39.0448V39.037V39.0306V39.0241V39.0164V39.0099V39.0035V38.9957V38.9893V38.9828V38.9751V38.9686V38.9609V38.9544V38.948V38.9402V38.9338V38.926V38.9196V38.9118V38.9054V38.8976V38.8912V38.8834V38.8757V38.8692V38.8615V38.8538V38.8473V38.8396V38.8318V38.8254V38.8176V38.8099V38.8034V38.7957V38.7879V38.7802V38.7737V38.766V38.7583V38.7505V38.7428V38.735V38.7286V38.7208V38.7131V38.7053V38.6976V38.6899V38.6821V38.6744V38.6666V38.6589V38.6511V38.6434V38.6357V38.6279V38.6202V38.6124V38.6047V38.5969V38.5892V38.5814V38.5737V38.5647V38.5569V38.5492V38.5414V38.5337V38.526V38.5169V38.5092V38.5014V38.4937V38.4859V38.4769V38.4692V38.4614V38.4524V38.4447V38.4369V38.4279V38.4201V38.4124V38.4034V38.3956V38.3879V38.3788V38.3711V38.3621V38.3543V38.3466V38.3375V38.3298V38.3208V38.313V38.304V38.2962V38.2872V38.2795V38.2704V38.2627V38.2536V38.2459V38.2369V38.2278V38.2201V38.2111V38.2033V38.1943V38.1853V38.1775V38.1685V38.1594V38.1517V38.1427V38.1336V38.1259V38.1168V38.1078V38.0988V38.091V38.082V38.073V38.0639V38.0562V38.0472V38.0381V38.0291V38.0201V38.0123V38.0033V37.9942V37.9852V37.9762V37.9671V37.9594V37.9504V37.9413V37.9323V37.9233V37.9142V37.9052V37.8962V37.8871V37.8781V37.8691V37.86V37.851V37.842V37.8342V37.8252V37.8162V37.8071V37.7968V37.7878V37.7787V37.7697V37.7607V37.7516V37.7426V37.7336V37.7245V37.7155V37.7065V37.6974V37.6884V37.6794V37.669V37.66V37.651V37.6419V37.6329V37.6239V37.6148V37.6045V37.5955V37.5864V37.5774V37.5684V37.5593V37.549V37.54V37.5309V37.5219V37.5129V37.5026V37.4935V37.4845V37.4754V37.4651V37.4561V37.4471V37.4367V37.4277V37.4187V37.4096V37.3993V37.3903V37.3812V37.3709V37.3619V37.3528V37.3425V37.3335V37.3245V37.3141V37.3051V37.2961V37.2857V37.2767V37.2677V37.2573V37.2483V37.238V37.229V37.2199V37.2096V37.2006V37.1915V37.1812V37.1722V37.1618V37.1528V37.1425V37.1335V37.1244V37.1141V37.1051V37.0947V37.0857V37.0754V37.0663V37.056V37.047V37.0367V37.0276V37.0186V37.0083V36.9992V36.9889V36.9799V36.9696V36.9605V36.9502V36.9412V36.9308V36.9218V36.9115V36.9024V36.8921V36.8831V36.8728V36.8637V36.8534V36.8431V36.834V36.8237V36.8147V36.8044V36.7953V36.785V36.776V36.7656V36.7566V36.7463V36.736C39.5342 34.7808 41.1712 33.196 43.1808 33.196C44.7513 33.196 46.1487 34.1717 46.6544 35.6171L46.7875 36.0146C47.0138 36.6908 46.6411 37.4212 45.9491 37.6471C45.2437 37.8716 44.4984 37.5064 44.2589 36.8302L44.1258 36.4327C43.9927 36.0417 43.6067 35.7771 43.1808 35.7771L42.196 36.7463ZM47.4701 23.9934L45.8731 27.2053C45.5182 27.9115 45.6602 28.8077 46.2812 29.356L49.2446 31.9822C56.6621 38.5674 52.0661 50.9623 42.1999 50.9623C32.3337 50.9623 27.7377 38.5674 35.1551 31.9822L38.1185 29.356C38.7396 28.8077 38.8816 27.9115 38.5267 27.2053L36.9296 23.9934L38.1718 24.4105L38.8461 24.6411L39.5027 24.3146L42.1999 22.9447L44.8971 24.3146L45.5537 24.6411L46.228 24.4105L47.4701 23.9934ZM42.1999 19L42.9807 19.3939L45.8199 20.8313L50.3448 19.2981C51.0191 19.0728 51.7644 19.2768 52.2258 19.8163C52.6872 20.3557 52.7759 21.1223 52.4565 21.7611L49.5818 27.5992L51.5338 29.3276C61.3822 38.0564 55.2779 54.49 42.1999 54.49C29.1218 54.49 23.0176 38.0564 32.866 29.3276L34.818 27.5992L31.9433 21.7611C31.6239 21.1223 31.7126 20.3557 32.174 19.8163C32.6353 19.2768 33.3806 19.0728 34.0549 19.2981L38.5799 20.8313L41.4191 19.3939L42.1999 19Z"/>
</mask>
<path fill-rule="evenodd" clip-rule="evenodd" d="M42.196 36.7463V36.7566V36.7656V36.776V36.785V36.7953V36.8044V36.8147V36.8237V36.834V36.8431V36.8534V36.8637V36.8728V36.8831V36.8921V36.9024V36.9115V36.9218V36.9308V36.9412V36.9502V36.9605V36.9696V36.9799V36.9889V36.9992V37.0083V37.0186V37.0276V37.0367V37.047V37.056V37.0663V37.0754V37.0857V37.0947V37.1051V37.1141V37.1244V37.1335V37.1425V37.1528V37.1618V37.1722V37.1812V37.1915V37.2006V37.2096V37.2199V37.229V37.238V37.2483V37.2573V37.2677V37.2767V37.2857V37.2961V37.3051V37.3141V37.3245V37.3335V37.3425V37.3528V37.3619V37.3709V37.3812V37.3903V37.3993V37.4096V37.4187V37.4277V37.4367V37.4471V37.4561V37.4651V37.4754V37.4845V37.4935V37.5026V37.5129V37.5219V37.5309V37.54V37.549V37.5593V37.5684V37.5774V37.5864V37.5955V37.6045V37.6148V37.6239V37.6329V37.6419V37.651V37.66V37.669V37.6794V37.6884V37.6974V37.7065V37.7155V37.7245V37.7336V37.7426V37.7516V37.7607V37.7697V37.7787V37.7878V37.7968V37.8071V37.8162V37.8252V37.8342V37.842V37.851V37.86V37.8691V37.8781V37.8871V37.8962V37.9052V37.9142V37.9233V37.9323V37.9413V37.9504V37.9594V37.9671V37.9762V37.9852V37.9942V38.0033V38.0123V38.0201V38.0291V38.0381V38.0472V38.0562V38.0639V38.073V38.082V38.091V38.0988V38.1078V38.1168V38.1259V38.1336V38.1427V38.1517V38.1594V38.1685V38.1775V38.1853V38.1943V38.2033V38.2111V38.2201V38.2278V38.2369V38.2459V38.2536V38.2627V38.2704V38.2795V38.2872V38.2962V38.304V38.313V38.3208V38.3298V38.3375V38.3466V38.3543V38.3621V38.3711V38.3788V38.3879V38.3956V38.4034V38.4124V38.4201V38.4279V38.4369V38.4447V38.4524V38.4614V38.4692V38.4769V38.4859V38.4937V38.5014V38.5092V38.5169V38.526V38.5337V38.5414V38.5492V38.5569V38.5647V38.5737V38.5814V38.5892V38.5969V38.6047V38.6124V38.6202V38.6279V38.6357V38.6434V38.6511V38.6589V38.6666V38.6744V38.6821V38.6899V38.6976V38.7053V38.7131V38.7208V38.7286V38.735V38.7428V38.7505V38.7583V38.766V38.7737V38.7802V38.7879V38.7957V38.8034V38.8099V38.8176V38.8254V38.8318V38.8396V38.8473V38.8538V38.8615V38.8692V38.8757V38.8834V38.8912V38.8976V38.9054V38.9118V38.9196V38.926V38.9338V38.9402V38.948V38.9544V38.9609V38.9686V38.9751V38.9828V38.9893V38.9957V39.0035V39.0099V39.0164V39.0241V39.0306V39.037V39.0448V39.0512V39.0577V39.0641V39.0706V39.0783V39.0848V39.0912V39.0977V39.1041V39.1106V39.117V39.1235V39.1299V39.1364V39.1428V39.1493V39.1557V39.1622V39.1686V39.1751V39.1816V39.188V39.1945V39.2009V39.2074V39.2138V39.219V39.2254V39.2319V39.2383V39.2448V39.25V39.2564V39.2629V39.268V39.2745V39.2809V39.2861V39.2925V39.299V39.3042V39.3106V39.3158V39.3222V39.3274V39.3338V39.339V39.3454V39.3506V39.3571V39.3622V39.3674V39.3738V39.379V39.3855V39.3906V39.3958V39.4009V39.4074V39.4126V39.4177V39.4229V39.4293V39.4345V39.4397V39.4448V39.45V39.4551V39.4603V39.4655V39.4706V39.4758V39.481V39.4861V39.4913V39.4964V39.5016V39.5068V39.5119V39.5171V39.5223V39.5274V39.5313V39.5364V39.5416V39.5468V39.5519V39.5558V39.561V39.5661V39.57V39.5752V39.5803V39.5842V39.5894V39.5932V39.5984V39.6023V39.6074V39.6113V39.6165V39.6203V39.6255V39.6294V39.6332V39.6384V39.6423V39.6461V39.6487H44.8577C45.5897 39.6487 46.1886 40.2269 46.1886 40.9393C46.1886 41.6517 45.5897 42.2298 44.8577 42.2298H42.196V44.8109H46.1886C46.9206 44.8109 47.5195 45.3891 47.5195 46.1015C47.5195 46.8138 46.9206 47.392 46.1886 47.392H40.8651H38.8688C38.1368 47.392 37.5379 46.8138 37.5379 46.1015C37.5379 45.3891 38.1368 44.8109 38.8688 44.8109H39.5342V42.2298H38.2034C37.4714 42.2298 36.8725 41.6517 36.8725 40.9393C36.8725 40.2269 37.4714 39.6487 38.2034 39.6487H39.5342V39.6461V39.6423V39.6384V39.6332V39.6294V39.6255V39.6203V39.6165V39.6113V39.6074V39.6023V39.5984V39.5932V39.5894V39.5842V39.5803V39.5752V39.57V39.5661V39.561V39.5558V39.5519V39.5468V39.5416V39.5364V39.5313V39.5274V39.5223V39.5171V39.5119V39.5068V39.5016V39.4964V39.4913V39.4861V39.481V39.4758V39.4706V39.4655V39.4603V39.4551V39.45V39.4448V39.4397V39.4345V39.4293V39.4229V39.4177V39.4126V39.4074V39.4009V39.3958V39.3906V39.3855V39.379V39.3738V39.3674V39.3622V39.3571V39.3506V39.3454V39.339V39.3338V39.3274V39.3222V39.3158V39.3106V39.3042V39.299V39.2925V39.2861V39.2809V39.2745V39.268V39.2629V39.2564V39.25V39.2448V39.2383V39.2319V39.2254V39.219V39.2138V39.2074V39.2009V39.1945V39.188V39.1816V39.1751V39.1686V39.1622V39.1557V39.1493V39.1428V39.1364V39.1299V39.1235V39.117V39.1106V39.1041V39.0977V39.0912V39.0848V39.0783V39.0706V39.0641V39.0577V39.0512V39.0448V39.037V39.0306V39.0241V39.0164V39.0099V39.0035V38.9957V38.9893V38.9828V38.9751V38.9686V38.9609V38.9544V38.948V38.9402V38.9338V38.926V38.9196V38.9118V38.9054V38.8976V38.8912V38.8834V38.8757V38.8692V38.8615V38.8538V38.8473V38.8396V38.8318V38.8254V38.8176V38.8099V38.8034V38.7957V38.7879V38.7802V38.7737V38.766V38.7583V38.7505V38.7428V38.735V38.7286V38.7208V38.7131V38.7053V38.6976V38.6899V38.6821V38.6744V38.6666V38.6589V38.6511V38.6434V38.6357V38.6279V38.6202V38.6124V38.6047V38.5969V38.5892V38.5814V38.5737V38.5647V38.5569V38.5492V38.5414V38.5337V38.526V38.5169V38.5092V38.5014V38.4937V38.4859V38.4769V38.4692V38.4614V38.4524V38.4447V38.4369V38.4279V38.4201V38.4124V38.4034V38.3956V38.3879V38.3788V38.3711V38.3621V38.3543V38.3466V38.3375V38.3298V38.3208V38.313V38.304V38.2962V38.2872V38.2795V38.2704V38.2627V38.2536V38.2459V38.2369V38.2278V38.2201V38.2111V38.2033V38.1943V38.1853V38.1775V38.1685V38.1594V38.1517V38.1427V38.1336V38.1259V38.1168V38.1078V38.0988V38.091V38.082V38.073V38.0639V38.0562V38.0472V38.0381V38.0291V38.0201V38.0123V38.0033V37.9942V37.9852V37.9762V37.9671V37.9594V37.9504V37.9413V37.9323V37.9233V37.9142V37.9052V37.8962V37.8871V37.8781V37.8691V37.86V37.851V37.842V37.8342V37.8252V37.8162V37.8071V37.7968V37.7878V37.7787V37.7697V37.7607V37.7516V37.7426V37.7336V37.7245V37.7155V37.7065V37.6974V37.6884V37.6794V37.669V37.66V37.651V37.6419V37.6329V37.6239V37.6148V37.6045V37.5955V37.5864V37.5774V37.5684V37.5593V37.549V37.54V37.5309V37.5219V37.5129V37.5026V37.4935V37.4845V37.4754V37.4651V37.4561V37.4471V37.4367V37.4277V37.4187V37.4096V37.3993V37.3903V37.3812V37.3709V37.3619V37.3528V37.3425V37.3335V37.3245V37.3141V37.3051V37.2961V37.2857V37.2767V37.2677V37.2573V37.2483V37.238V37.229V37.2199V37.2096V37.2006V37.1915V37.1812V37.1722V37.1618V37.1528V37.1425V37.1335V37.1244V37.1141V37.1051V37.0947V37.0857V37.0754V37.0663V37.056V37.047V37.0367V37.0276V37.0186V37.0083V36.9992V36.9889V36.9799V36.9696V36.9605V36.9502V36.9412V36.9308V36.9218V36.9115V36.9024V36.8921V36.8831V36.8728V36.8637V36.8534V36.8431V36.834V36.8237V36.8147V36.8044V36.7953V36.785V36.776V36.7656V36.7566V36.7463V36.736C39.5342 34.7808 41.1712 33.196 43.1808 33.196C44.7513 33.196 46.1487 34.1717 46.6544 35.6171L46.7875 36.0146C47.0138 36.6908 46.6411 37.4212 45.9491 37.6471C45.2437 37.8716 44.4984 37.5064 44.2589 36.8302L44.1258 36.4327C43.9927 36.0417 43.6067 35.7771 43.1808 35.7771L42.196 36.7463ZM47.4701 23.9934L45.8731 27.2053C45.5182 27.9115 45.6602 28.8077 46.2812 29.356L49.2446 31.9822C56.6621 38.5674 52.0661 50.9623 42.1999 50.9623C32.3337 50.9623 27.7377 38.5674 35.1551 31.9822L38.1185 29.356C38.7396 28.8077 38.8816 27.9115 38.5267 27.2053L36.9296 23.9934L38.1718 24.4105L38.8461 24.6411L39.5027 24.3146L42.1999 22.9447L44.8971 24.3146L45.5537 24.6411L46.228 24.4105L47.4701 23.9934ZM42.1999 19L42.9807 19.3939L45.8199 20.8313L50.3448 19.2981C51.0191 19.0728 51.7644 19.2768 52.2258 19.8163C52.6872 20.3557 52.7759 21.1223 52.4565 21.7611L49.5818 27.5992L51.5338 29.3276C61.3822 38.0564 55.2779 54.49 42.1999 54.49C29.1218 54.49 23.0176 38.0564 32.866 29.3276L34.818 27.5992L31.9433 21.7611C31.6239 21.1223 31.7126 20.3557 32.174 19.8163C32.6353 19.2768 33.3806 19.0728 34.0549 19.2981L38.5799 20.8313L41.4191 19.3939L42.1999 19Z" fill="white" stroke="#FF3182" mask="url(#path-2-inside-1)"/>
</svg>
