<svg width="75" height="71" viewBox="0 0 75 71" fill="none" xmlns="http://www.w3.org/2000/svg">
<path d="M32.9637 2.91793C1.6638 14.1499 -6.55022 34.1027 4.95212 48.5476C16.4545 62.9926 39.1614 71.5515 47.4431 70.9575C83.98 73.239 88.9733 -17.1834 32.9637 2.91793Z" fill="#FF3182"/>
<path d="M47.3264 53.0324C43.1168 53.0324 38.9156 53.0324 34.706 53.0324C34.132 52.7662 33.924 52.3086 33.9656 51.693C33.9989 51.1855 33.9323 50.6697 33.9822 50.1622C34.0654 49.3719 34.1902 48.5899 34.3316 47.8079C34.3815 47.525 34.5313 47.2588 34.6311 47.0175C30.7044 43.8895 29.2735 39.9129 30.3633 35.0211C30.2385 35.0211 30.1221 35.0211 29.9973 35.0211C28.3917 35.0211 26.786 35.0211 25.1804 35.0211C24.3818 35.0211 24.0074 34.6384 24.0074 33.8398C24.0074 33.2075 23.9908 32.5753 24.0074 31.943C24.0823 29.4971 25.1305 27.5671 27.1354 26.1611C27.4017 25.9697 27.7012 25.82 28.0007 25.637C27.2935 24.7801 26.9191 23.8234 27.0023 22.7169C27.0855 21.6021 27.5597 20.6787 28.4 19.9466C29.8309 18.707 31.9856 18.6821 33.4747 19.8883C34.2152 20.4873 34.6894 21.261 34.8724 22.1928C35.1303 23.4823 34.7809 24.6137 33.9406 25.637C34.0737 25.7118 34.1736 25.7784 34.2734 25.8366C35.0887 26.2776 35.7958 26.8599 36.3615 27.6003C36.5196 27.8083 36.661 27.8582 36.9106 27.7584C37.8673 27.3591 38.8656 27.1344 39.8972 27.0346C41.7025 26.8599 43.4496 27.1012 45.1384 27.775C45.338 27.8582 45.4379 27.8 45.5876 27.6502C46.1201 27.1261 46.6691 26.6103 47.2348 26.1278C47.4678 25.9282 47.7673 25.8034 48.0418 25.637C46.353 23.5572 47.0518 21.2028 48.3413 20.0381C49.7972 18.732 51.9852 18.6405 53.5159 19.88C54.2646 20.4873 54.7472 21.2694 54.9302 22.2177C55.1798 23.4906 54.8303 24.622 54.0151 25.6037C54.04 25.6453 54.0483 25.6703 54.065 25.6786C54.1232 25.7118 54.1814 25.7451 54.2397 25.7784C55.9285 26.7018 57.0849 28.0745 57.6672 29.9131C57.817 30.379 57.8918 30.8781 58 31.3606C58 32.334 58 33.3074 58 34.2807C57.7338 34.8547 57.2762 35.0294 56.6606 35.0211C55.0966 34.9962 53.5409 35.0128 51.9768 35.0128C51.8604 35.0128 51.7522 35.0128 51.6441 35.0128C52.7256 39.9378 51.2863 43.9061 47.4095 46.9759C47.5759 47.5417 47.8172 48.0907 47.8837 48.6648C47.9919 49.6631 47.9753 50.6697 48.0418 51.6763C48.1084 52.3086 47.9087 52.7662 47.3264 53.0324ZM37.5761 29.6552C37.6677 30.0379 37.8091 30.379 37.8257 30.7201C37.8923 31.76 37.9339 32.7916 37.9588 33.8315C37.9755 34.6551 37.5928 35.0294 36.7692 35.0294C35.4381 35.0294 34.1153 35.0378 32.7842 35.0211C32.5763 35.0211 32.4598 35.0627 32.4099 35.2873C32.3267 35.7116 32.1852 36.1193 32.1104 36.5436C31.7277 38.8646 32.2185 41.011 33.4914 42.9744C34.0904 43.8978 34.8557 44.6798 35.7043 45.2788C36.4697 44.7048 37.2101 44.164 37.9422 43.615C36.4198 41.793 36.8191 39.5219 38.1585 38.1991C39.5894 36.8015 41.794 36.6351 43.4163 37.8247C44.2149 38.4071 44.7474 39.1808 44.9637 40.1458C45.2632 41.4686 44.9054 42.6333 44.0901 43.6066C44.8472 44.1723 45.5793 44.7131 46.3364 45.2788C46.2948 45.2955 46.3114 45.2955 46.328 45.2788C49.4561 42.9827 50.7705 39.0227 49.6391 35.3373C49.5642 35.096 49.4644 35.0128 49.2065 35.0128C47.8421 35.0294 46.4861 35.0211 45.1217 35.0211C44.5477 35.0211 44.0901 34.6551 44.0818 34.1143C44.0652 33.1742 44.0652 32.2342 44.1234 31.2941C44.1567 30.745 44.3231 30.1959 44.4229 29.6302C42.1601 28.765 39.8723 28.765 37.5761 29.6552ZM35.9872 51.0191C39.3565 51.0191 42.7008 51.0191 46.0452 51.0191C46.4528 46.9344 43.4912 44.996 41.0203 44.996C38.5745 44.9876 35.5878 46.9011 35.9872 51.0191ZM26.029 33.0079C29.3484 33.0079 32.6511 33.0079 35.9539 33.0079C36.3283 29.0479 33.508 26.9847 30.9956 26.9847C28.4749 26.9847 25.6463 29.0396 26.029 33.0079ZM56.0117 33.0162C56.1947 30.6701 55.4959 28.7484 53.3911 27.6003C51.5775 26.6103 49.7473 26.7601 48.0834 27.9997C46.4029 29.2475 45.9121 31.0029 46.0868 33.0162C49.4062 33.0162 52.7006 33.0162 56.0117 33.0162ZM41.012 42.9993C42.1102 42.9993 43.0586 42.0925 43.0752 41.0277C43.0918 39.9545 42.1351 39.0227 41.0203 39.0144C39.9139 39.0144 38.9488 39.9461 38.9572 41.0193C38.9738 42.0842 39.9222 42.991 41.012 42.9993ZM31.0039 24.9881C32.0854 24.9798 32.9839 24.0729 32.9839 22.9914C32.9839 21.9099 32.0771 21.0115 30.9956 21.0031C29.8974 21.0031 28.9906 21.9266 28.999 23.0164C29.0156 24.1062 29.9224 25.0047 31.0039 24.9881ZM53.0417 23.0081C53.0417 21.9266 52.1432 21.0198 51.0617 21.0115C49.9802 21.0031 49.0734 21.8933 49.0568 22.9831C49.0401 24.0729 49.9552 24.9964 51.0534 24.9964C52.1349 24.9881 53.0417 24.0896 53.0417 23.0081Z" fill="white"/>
</svg>
