<svg width="21" height="17" viewBox="0 0 21 17" fill="none" xmlns="http://www.w3.org/2000/svg">
<path d="M19.95 0H1.05C0.771523 0 0.504451 0.110625 0.307538 0.307538C0.110625 0.504451 0 0.771523 0 1.05V15.75C0 16.0285 0.110625 16.2955 0.307538 16.4925C0.504451 16.6894 0.771523 16.8 1.05 16.8H19.95C20.2285 16.8 20.4955 16.6894 20.6925 16.4925C20.8894 16.2955 21 16.0285 21 15.75V1.05C21 0.771523 20.8894 0.504451 20.6925 0.307538C20.4955 0.110625 20.2285 0 19.95 0ZM19.95 1.05V3.15H1.05V1.05H19.95ZM1.05 15.75V4.2H19.95V15.75H1.05ZM2.1 2.1C2.1 1.99616 2.13079 1.89466 2.18848 1.80833C2.24617 1.72199 2.32816 1.6547 2.42409 1.61496C2.52002 1.57523 2.62558 1.56483 2.72742 1.58509C2.82926 1.60534 2.92281 1.65535 2.99623 1.72877C3.06965 1.80219 3.11965 1.89574 3.13991 1.99758C3.16017 2.09942 3.14977 2.20498 3.11004 2.30091C3.0703 2.39684 3.00301 2.47883 2.91667 2.53652C2.83034 2.59421 2.72884 2.625 2.625 2.625C2.48576 2.625 2.35223 2.56969 2.25377 2.47123C2.15531 2.37277 2.1 2.23924 2.1 2.1ZM6.825 6.3C6.09815 6.3 5.38763 6.51553 4.78328 6.91935C4.17893 7.32316 3.70789 7.89712 3.42974 8.56864C3.15159 9.24016 3.07881 9.97908 3.22061 10.692C3.36241 11.4048 3.71242 12.0597 4.22638 12.5736C4.74034 13.0876 5.39516 13.4376 6.10804 13.5794C6.82092 13.7212 7.55984 13.6484 8.23136 13.3703C8.90288 13.0921 9.47684 12.6211 9.88065 12.0167C10.2845 11.4124 10.5 10.7018 10.5 9.975C10.4989 9.00067 10.1113 8.06657 9.42239 7.37761C8.73343 6.68865 7.79933 6.30111 6.825 6.3ZM9.3975 9.45H7.35V7.4025C7.85401 7.5064 8.31654 7.75569 8.68042 8.11958C9.04431 8.48346 9.2936 8.94599 9.3975 9.45ZM6.825 12.6C6.17403 12.6007 5.54603 12.3594 5.06292 11.9231C4.57982 11.4868 4.27607 10.8865 4.21065 10.2388C4.14523 9.59113 4.3228 8.94225 4.70889 8.41813C5.09498 7.89401 5.66204 7.53204 6.3 7.4025V10.5H9.3975C9.27565 11.0925 8.95326 11.6249 8.48466 12.0074C8.01606 12.39 7.42991 12.5992 6.825 12.6ZM12.6 10.5H13.65V13.65H12.6V10.5ZM14.7 8.4H15.75V13.65H14.7V8.4ZM16.8 6.3H17.85V13.65H16.8V6.3Z" fill="#FF3182"/>
</svg>
