<svg width="20" height="20" viewBox="0 0 20 20" fill="none" xmlns="http://www.w3.org/2000/svg">
<path fill-rule="evenodd" clip-rule="evenodd" d="M15.9374 10.8337L17.5591 12.2517C17.7831 12.4074 17.9166 12.663 17.9166 12.9358V14.167C17.9166 14.6272 17.5435 15.0003 17.0833 15.0003H2.91659C2.45635 15.0003 2.08325 14.6272 2.08325 14.167V12.9358C2.08325 12.663 2.21676 12.4074 2.4407 12.2517L4.06242 10.8337V6.73502C4.06242 4.24685 6.11103 1.66699 9.99992 1.66699C13.8888 1.66699 15.9374 4.15248 15.9374 6.73502V10.8337Z" stroke="#FF3182" stroke-linecap="round" stroke-linejoin="round"/>
<path fill-rule="evenodd" clip-rule="evenodd" d="M5.83667 15H14.1705V15.345C14.1705 16.2561 13.6748 17.0951 12.8767 17.5347C11.9102 18.0671 10.9513 18.3333 10 18.3333C9.04952 18.3333 8.09251 18.0675 7.12901 17.536C6.33174 17.0961 5.83667 16.2576 5.83667 15.347V15Z" stroke="#FF3182" stroke-linecap="round" stroke-linejoin="round"/>
</svg>
