<svg width="21" height="18" viewBox="0 0 21 18" fill="none" xmlns="http://www.w3.org/2000/svg">
<path d="M0 5.72692C0 5.73111 0.0021928 5.7346 0.0023922 5.73878V11.2027C0.0023922 12.0718 0.708888 12.7791 1.57805 12.7791H4.79386C5.00438 15.6012 7.35663 17.8027 10.2035 17.8027C13.0643 17.8027 15.4107 15.5835 15.6204 12.7791H18.8394C19.7085 12.7791 20.4158 12.0718 20.4158 11.2027V1.57566C20.4158 0.692142 19.7237 0 18.8394 0H1.57805C0.708888 0 0.0023922 0.706496 0.0023922 1.57566V2.95606C0.00219288 2.96024 0 2.96373 0 2.96792V5.72692ZM0.818929 3.37619H19.5969V5.31865H0.818929V3.37619ZM13.1645 8.8294L12.7703 9.22352C12.6109 9.383 12.6109 9.64135 12.7703 9.80083C12.9298 9.96031 13.1882 9.96032 13.3477 9.80083L13.7418 9.40672C14.3323 10.111 14.7154 10.9929 14.8012 11.9598L14.2423 11.9594C14.0167 11.9594 13.8341 12.142 13.8341 12.3677C13.8341 12.5925 14.0167 12.7759 14.2423 12.7759L14.8039 12.7763C14.7193 13.7438 14.336 14.6265 13.7446 15.331L13.3485 14.9345C13.189 14.775 12.9306 14.775 12.7711 14.9345C12.6117 15.094 12.6117 15.3523 12.7711 15.5118L13.1668 15.9079C12.462 16.4978 11.5793 16.8803 10.6118 16.9655V16.4073C10.6118 16.1816 10.4292 15.999 10.2035 15.999C9.97786 15.999 9.79525 16.1816 9.79525 16.4073V16.9655C8.82821 16.8801 7.94618 16.4966 7.24218 15.9055L7.63589 15.5118C7.79537 15.3523 7.79537 15.094 7.63589 14.9345C7.47642 14.775 7.21806 14.775 7.05858 14.9345L6.66516 15.3279C6.07568 14.6234 5.69423 13.7411 5.6101 12.7743H6.16469C6.39036 12.7743 6.57296 12.5917 6.57296 12.3661C6.57296 12.1404 6.39036 11.9578 6.16469 11.9578H5.6107C5.69702 10.9921 6.07977 10.1112 6.66875 9.40782L7.06017 9.79924C7.21965 9.95871 7.478 9.95872 7.63749 9.79924C7.79697 9.63976 7.79697 9.3814 7.63749 9.22192L7.24567 8.8301C7.94907 8.23973 8.8298 7.85677 9.79525 7.77145V8.32963C9.79525 8.5553 9.97786 8.7379 10.2035 8.7379C10.4292 8.7379 10.6118 8.5553 10.6118 8.32963V7.77145C11.533 7.85259 12.4196 8.20465 13.1645 8.8294ZM18.8394 11.9626H15.6234C15.6223 11.9476 15.6193 11.9334 15.6181 11.9185C15.3845 9.10372 13.0065 6.93259 10.2003 6.93259C7.36208 6.93259 4.99623 9.15434 4.78599 11.9626H1.57805C1.15942 11.9626 0.818929 11.6213 0.818929 11.2027V6.13519H19.5993V11.2027C19.5993 11.6213 19.258 11.9626 18.8394 11.9626ZM1.57805 0.816537H18.8394C19.2652 0.816537 19.5993 1.14985 19.5993 1.57566V2.55965H0.818929V1.57566C0.818929 1.14985 1.15224 0.816537 1.57805 0.816537Z" fill="#FF3182"/>
</svg>
