<svg width="583" height="357" viewBox="0 0 583 357" fill="none" xmlns="http://www.w3.org/2000/svg">
<g filter="url(#filter0_f_1823:57696)">
<path d="M505.68 277.739C475.014 328.29 437.531 346.692 405.9 346.763C373.614 346.611 345.366 329.708 317.283 303.16C289.42 276.503 264.597 244.654 241.347 215.169C218.975 185.249 198.062 158.57 192.823 137.391C187.639 116.047 202.215 103.236 239.939 90.589C276.617 78.8686 337.786 62.2761 400.761 54.8994C463.739 46.9746 510.655 62.7051 528.766 110.033C547.981 155.721 535.957 228.337 505.68 277.739Z" fill="url(#paint0_linear_1823:57696)"/>
</g>
<g style="mix-blend-mode:multiply" filter="url(#filter1_f_1823:57696)">
<path d="M41.3502 107.634C52.3417 48.7744 90.663 20.1539 135.547 11.9396C181.062 3.84545 232.118 14.6572 281.905 37.8529C331.902 61.0886 373.967 92.8274 408.059 124.136C441.401 155.955 466.64 186.884 468.792 215.594C470.943 244.303 445.996 267.851 398.492 292.111C351.647 315.19 283.927 343.871 221.497 355.057C158.947 366.873 113.462 346.238 80.7694 293.862C48.4672 242.867 30.1786 165.153 41.3502 107.634Z" fill="url(#paint1_linear_1823:57696)"/>
</g>
<defs>
<filter id="filter0_f_1823:57696" x="136.002" y="-29" width="446.721" height="414.165" filterUnits="userSpaceOnUse" color-interpolation-filters="sRGB">
<feFlood flood-opacity="0" result="BackgroundImageFix"/>
<feBlend mode="normal" in="SourceGraphic" in2="BackgroundImageFix" result="shape"/>
<feGaussianBlur stdDeviation="4.5" result="effect1_foregroundBlur_1823:57696"/>
</filter>
<filter id="filter1_f_1823:57696" x="-9" y="-22.9985" width="516.346" height="439.377" filterUnits="userSpaceOnUse" color-interpolation-filters="sRGB">
<feFlood flood-opacity="0" result="BackgroundImageFix"/>
<feBlend mode="normal" in="SourceGraphic" in2="BackgroundImageFix" result="shape"/>
<feGaussianBlur stdDeviation="4.5" result="effect1_foregroundBlur_1823:57696"/>
</filter>
<linearGradient id="paint0_linear_1823:57696" x1="573.433" y1="92.722" x2="235.838" y2="-11.8543" gradientUnits="userSpaceOnUse">
<stop stop-color="#C6186D"/>
<stop offset="1" stop-color="#33A5EB"/>
</linearGradient>
<linearGradient id="paint1_linear_1823:57696" x1="0.376517" y1="324.831" x2="439.124" y2="395.251" gradientUnits="userSpaceOnUse">
<stop stop-color="#C6186D"/>
<stop offset="1" stop-color="#33A5EB"/>
</linearGradient>
</defs>
</svg>
