<svg width="354" height="317" viewBox="0 0 354 317" fill="none" xmlns="http://www.w3.org/2000/svg">
<path d="M155.438 13.028C8.22199 63.1761 -30.4118 152.262 23.6883 216.755C77.7884 281.248 184.588 319.462 223.54 316.81C395.388 326.997 418.874 -76.7204 155.438 13.028Z" fill="#FFBE28"/>
<path d="M96.348 163.664V171.248H103.644C106.62 185.936 116.124 195.44 130.812 195.44C145.5 195.44 154.428 186.224 156.636 171.824L144.252 170.864C142.908 178.448 140.316 183.248 132.348 183.248C126.492 183.248 122.364 179.888 120.636 171.248H131.484V163.664H119.868C119.772 162.8 119.772 161.84 119.772 160.88C119.772 159.824 119.772 158.864 119.868 157.904H135.324V150.32H120.732C122.556 141.872 126.78 138.416 132.444 138.416C138.684 138.416 141.756 142.16 142.908 149.648L155.58 148.304C152.892 133.04 143.292 126.32 131.484 126.32C118.236 126.32 107.484 135.824 103.932 150.32H96.348V157.904H102.78C102.684 158.864 102.684 159.824 102.684 160.88C102.684 161.84 102.684 162.8 102.78 163.664H96.348ZM188.733 195.44C205.053 195.44 215.037 185.456 215.037 171.632C215.037 158.48 207.549 150.8 193.725 150.8C186.237 150.8 180.957 154.064 178.173 158.672H177.597C178.077 146.96 184.317 137.552 194.397 137.552C201.405 137.552 204.669 140.144 206.589 144.176L215.325 140.144C212.637 132.752 206.397 126.32 194.301 126.32C175.677 126.32 161.085 141.68 161.085 165.68C161.085 182.672 170.205 195.44 188.733 195.44ZM188.157 183.344C182.205 183.344 178.173 178.928 178.173 172.4C178.173 165.776 182.397 161.84 188.253 161.84C194.685 161.84 198.237 165.776 198.237 172.4C198.237 179.12 194.205 183.344 188.157 183.344ZM280.998 160.88C280.998 138.992 267.27 126.32 250.758 126.32C234.246 126.32 220.518 138.992 220.518 160.88C220.518 182.864 234.246 195.44 250.758 195.44C266.31 195.44 280.998 182.864 280.998 160.88ZM237.51 160.88C237.51 146.672 242.502 139.76 250.758 139.76C259.014 139.76 263.91 146.672 263.91 160.88C263.91 175.184 259.014 181.808 250.758 181.808C242.502 181.808 237.51 175.184 237.51 160.88Z" fill="white"/>
<path d="M124.344 222.154C123.829 222.825 123.117 223.333 122.205 223.678C121.294 224.023 120.258 224.195 119.1 224.195C117.908 224.195 116.854 223.925 115.936 223.385C115.018 222.844 114.308 222.073 113.807 221.07C113.312 220.061 113.055 218.886 113.035 217.545V216.432C113.035 214.283 113.549 212.607 114.578 211.402C115.607 210.191 117.042 209.586 118.885 209.586C120.467 209.586 121.723 209.977 122.654 210.758C123.585 211.539 124.145 212.665 124.334 214.137H121.912C121.639 212.424 120.646 211.568 118.934 211.568C117.827 211.568 116.984 211.969 116.404 212.77C115.831 213.564 115.535 214.732 115.516 216.275V217.369C115.516 218.906 115.838 220.1 116.482 220.953C117.133 221.799 118.035 222.223 119.188 222.223C120.451 222.223 121.349 221.936 121.883 221.363V218.58H118.953V216.705H124.344V222.154ZM131.632 224.195C130.129 224.195 128.908 223.723 127.97 222.779C127.039 221.829 126.574 220.566 126.574 218.99V218.697C126.574 217.643 126.776 216.702 127.179 215.875C127.589 215.042 128.162 214.394 128.898 213.932C129.634 213.469 130.454 213.238 131.359 213.238C132.798 213.238 133.908 213.697 134.689 214.615C135.477 215.533 135.871 216.832 135.871 218.512V219.469H128.966C129.038 220.341 129.328 221.031 129.836 221.539C130.35 222.047 130.994 222.301 131.769 222.301C132.856 222.301 133.742 221.861 134.425 220.982L135.705 222.203C135.282 222.835 134.715 223.326 134.005 223.678C133.302 224.023 132.511 224.195 131.632 224.195ZM131.349 215.143C130.698 215.143 130.171 215.37 129.767 215.826C129.37 216.282 129.116 216.917 129.005 217.73H133.527V217.555C133.475 216.76 133.263 216.161 132.892 215.758C132.521 215.348 132.007 215.143 131.349 215.143ZM140.396 224H138.023V209H140.396V224ZM142.694 218.639C142.694 217.011 143.072 215.706 143.827 214.723C144.582 213.733 145.595 213.238 146.864 213.238C147.984 213.238 148.889 213.629 149.579 214.41V209H151.952V224H149.804L149.686 222.906C148.977 223.766 148.029 224.195 146.845 224.195C145.608 224.195 144.605 223.697 143.837 222.701C143.075 221.705 142.694 220.351 142.694 218.639ZM145.067 218.844C145.067 219.918 145.272 220.758 145.682 221.363C146.099 221.962 146.688 222.262 147.45 222.262C148.42 222.262 149.13 221.829 149.579 220.963V216.451C149.143 215.605 148.44 215.182 147.47 215.182C146.701 215.182 146.109 215.488 145.692 216.1C145.276 216.705 145.067 217.62 145.067 218.844ZM163.83 218.824C163.83 220.458 163.459 221.764 162.717 222.74C161.975 223.71 160.979 224.195 159.729 224.195C158.57 224.195 157.642 223.814 156.946 223.053V228.062H154.573V213.434H156.76L156.858 214.508C157.554 213.661 158.502 213.238 159.7 213.238C160.989 213.238 161.998 213.72 162.727 214.684C163.463 215.641 163.83 216.972 163.83 218.678V218.824ZM161.467 218.619C161.467 217.564 161.256 216.728 160.832 216.109C160.416 215.491 159.817 215.182 159.036 215.182C158.065 215.182 157.369 215.582 156.946 216.383V221.07C157.375 221.891 158.079 222.301 159.055 222.301C159.81 222.301 160.399 221.998 160.823 221.393C161.252 220.781 161.467 219.856 161.467 218.619ZM171.529 215.602C171.217 215.549 170.895 215.523 170.562 215.523C169.475 215.523 168.743 215.94 168.365 216.773V224H165.992V213.434H168.258L168.316 214.615C168.889 213.697 169.684 213.238 170.699 213.238C171.038 213.238 171.318 213.284 171.539 213.375L171.529 215.602ZM179.199 224C179.095 223.798 179.004 223.469 178.925 223.014C178.17 223.801 177.246 224.195 176.152 224.195C175.091 224.195 174.225 223.893 173.554 223.287C172.884 222.682 172.548 221.933 172.548 221.041C172.548 219.915 172.965 219.052 173.798 218.453C174.638 217.848 175.836 217.545 177.392 217.545H178.847V216.852C178.847 216.305 178.694 215.868 178.388 215.543C178.082 215.211 177.617 215.045 176.992 215.045C176.451 215.045 176.009 215.182 175.664 215.455C175.319 215.722 175.146 216.064 175.146 216.48H172.773C172.773 215.901 172.965 215.361 173.349 214.859C173.733 214.352 174.254 213.954 174.912 213.668C175.576 213.382 176.315 213.238 177.129 213.238C178.365 213.238 179.352 213.551 180.088 214.176C180.823 214.794 181.201 215.667 181.22 216.793V221.559C181.22 222.509 181.354 223.268 181.621 223.834V224H179.199ZM176.591 222.291C177.06 222.291 177.5 222.177 177.91 221.949C178.326 221.721 178.639 221.415 178.847 221.031V219.039H177.568C176.689 219.039 176.028 219.192 175.586 219.498C175.143 219.804 174.921 220.237 174.921 220.797C174.921 221.253 175.071 221.617 175.371 221.891C175.677 222.158 176.084 222.291 176.591 222.291ZM186.087 213.434L186.155 214.537C186.898 213.671 187.913 213.238 189.202 213.238C190.615 213.238 191.582 213.779 192.103 214.859C192.871 213.779 193.952 213.238 195.345 213.238C196.51 213.238 197.376 213.561 197.943 214.205C198.515 214.85 198.808 215.8 198.821 217.057V224H196.448V217.125C196.448 216.454 196.302 215.963 196.009 215.65C195.716 215.338 195.231 215.182 194.554 215.182C194.014 215.182 193.571 215.328 193.226 215.621C192.887 215.908 192.65 216.285 192.513 216.754L192.523 224H190.15V217.047C190.117 215.803 189.482 215.182 188.245 215.182C187.295 215.182 186.621 215.569 186.224 216.344V224H183.851V213.434H186.087ZM203.932 224H201.559V213.434H203.932V224ZM201.413 210.689C201.413 210.325 201.527 210.022 201.755 209.781C201.989 209.54 202.321 209.42 202.751 209.42C203.18 209.42 203.512 209.54 203.747 209.781C203.981 210.022 204.098 210.325 204.098 210.689C204.098 211.048 203.981 211.347 203.747 211.588C203.512 211.822 203.18 211.939 202.751 211.939C202.321 211.939 201.989 211.822 201.755 211.588C201.527 211.347 201.413 211.048 201.413 210.689ZM211.329 224.195C209.825 224.195 208.604 223.723 207.666 222.779C206.735 221.829 206.27 220.566 206.27 218.99V218.697C206.27 217.643 206.472 216.702 206.875 215.875C207.286 215.042 207.858 214.394 208.594 213.932C209.33 213.469 210.15 213.238 211.055 213.238C212.494 213.238 213.604 213.697 214.385 214.615C215.173 215.533 215.567 216.832 215.567 218.512V219.469H208.662C208.734 220.341 209.024 221.031 209.532 221.539C210.046 222.047 210.69 222.301 211.465 222.301C212.552 222.301 213.438 221.861 214.121 220.982L215.401 222.203C214.978 222.835 214.411 223.326 213.702 223.678C212.998 224.023 212.207 224.195 211.329 224.195ZM211.045 215.143C210.394 215.143 209.867 215.37 209.463 215.826C209.066 216.282 208.812 216.917 208.702 217.73H213.223V217.555C213.171 216.76 212.959 216.161 212.588 215.758C212.217 215.348 211.703 215.143 211.045 215.143Z" fill="#FCFCFC"/>
<path d="M113.445 111V96.7812H118.318C119.926 96.7812 121.15 97.1035 121.99 97.748C122.83 98.3926 123.25 99.3529 123.25 100.629C123.25 101.28 123.074 101.866 122.723 102.387C122.371 102.908 121.857 103.311 121.18 103.598C121.948 103.806 122.54 104.2 122.957 104.779C123.38 105.352 123.592 106.042 123.592 106.85C123.592 108.184 123.162 109.21 122.303 109.926C121.45 110.642 120.226 111 118.631 111H113.445ZM115.916 104.584V109.027H118.66C119.435 109.027 120.04 108.835 120.477 108.451C120.913 108.067 121.131 107.533 121.131 106.85C121.131 105.372 120.376 104.617 118.865 104.584H115.916ZM115.916 102.768H118.338C119.106 102.768 119.705 102.595 120.135 102.25C120.571 101.898 120.789 101.404 120.789 100.766C120.789 100.062 120.587 99.5547 120.184 99.2422C119.786 98.9297 119.165 98.7734 118.318 98.7734H115.916V102.768ZM128.507 111H126.134V100.434H128.507V111ZM125.988 97.6895C125.988 97.3249 126.102 97.0221 126.33 96.7812C126.564 96.5404 126.896 96.4199 127.326 96.4199C127.755 96.4199 128.087 96.5404 128.322 96.7812C128.556 97.0221 128.673 97.3249 128.673 97.6895C128.673 98.0475 128.556 98.347 128.322 98.5879C128.087 98.8223 127.755 98.9395 127.326 98.9395C126.896 98.9395 126.564 98.8223 126.33 98.5879C126.102 98.347 125.988 98.0475 125.988 97.6895ZM137.173 108.129C137.173 107.706 136.997 107.383 136.646 107.162C136.301 106.941 135.724 106.745 134.917 106.576C134.11 106.407 133.436 106.192 132.896 105.932C131.711 105.359 131.118 104.529 131.118 103.441C131.118 102.53 131.502 101.768 132.271 101.156C133.039 100.544 134.015 100.238 135.2 100.238C136.463 100.238 137.482 100.551 138.257 101.176C139.038 101.801 139.429 102.611 139.429 103.607H137.056C137.056 103.152 136.887 102.774 136.548 102.475C136.21 102.169 135.76 102.016 135.2 102.016C134.68 102.016 134.253 102.136 133.921 102.377C133.596 102.618 133.433 102.94 133.433 103.344C133.433 103.708 133.586 103.992 133.892 104.193C134.198 104.395 134.816 104.6 135.747 104.809C136.678 105.01 137.407 105.255 137.935 105.541C138.469 105.821 138.862 106.16 139.116 106.557C139.377 106.954 139.507 107.436 139.507 108.002C139.507 108.952 139.113 109.724 138.325 110.316C137.538 110.902 136.506 111.195 135.23 111.195C134.364 111.195 133.592 111.039 132.915 110.727C132.238 110.414 131.711 109.984 131.333 109.438C130.956 108.891 130.767 108.301 130.767 107.67H133.071C133.104 108.23 133.316 108.663 133.706 108.969C134.097 109.268 134.614 109.418 135.259 109.418C135.884 109.418 136.359 109.301 136.685 109.066C137.01 108.826 137.173 108.513 137.173 108.129ZM149.397 109.105H155.022V111H146.448V109.447L151.809 102.348H146.545V100.434H154.817V101.938L149.397 109.105ZM163.473 109.965C162.776 110.785 161.786 111.195 160.504 111.195C159.358 111.195 158.489 110.86 157.896 110.189C157.311 109.519 157.018 108.549 157.018 107.279V100.434H159.391V107.25C159.391 108.591 159.947 109.262 161.061 109.262C162.213 109.262 162.991 108.848 163.395 108.021V100.434H165.768V111H163.531L163.473 109.965Z" fill="#FCFCFC"/>
</svg>
